<?xml version="1.0" encoding="UTF-8"?> <svg xmlns="http://www.w3.org/2000/svg" fill="none" height="24" viewBox="0 0 32 24" width="32"><path clip-rule="evenodd" d="m25.9028 2.83045v.00004l.0126.00095c1.09.0827 1.7412.2913 2.1512.53225.3668.2155.6576.5239.9053 1.07728.2694.60182.4785 1.47772.6084 2.77597.1289 1.28768.1697 2.86956.1697 4.83086 0 1.961-.0408 3.5517-.1698 4.8502-.1302 1.3099-.3399 2.1994-.611 2.8106-.25.5636-.5397.8667-.8926 1.0713-.3951.2291-1.0316.4266-2.111.4811l-.0084.0005c-4.5699.2504-14.8051.2508-19.3928.0012-1.07791-.0838-1.72354-.2913-2.13103-.5307-.36674-.2155-.65759-.5239-.90528-1.0773-.26936-.6018-.47847-1.4777-.60841-2.776-.12888-1.2877-.16968-2.8696-.16968-4.8309s.0408-3.54318.16968-4.83086c.12994-1.29825.33905-2.17415.60841-2.77597.24769-.55338.53854-.86178.90528-1.07728.41004-.24095 1.06119-.44955 2.15126-.53225l.00001.00004.01252-.00103c4.54094-.37322 14.76474-.37322 19.30564 0zm-25.1528 9.21735c0 7.8985.64583 10.8285 5.68333 11.2107 4.64997.2548 14.98337.2548 19.63337 0 5.0375-.2548 5.6833-3.3122 5.6833-11.2107 0-7.89839-.6458-10.82845-5.6833-11.210627-4.65-.382181-14.9834-.382181-19.63337 0-5.0375.382177-5.68333 3.312237-5.68333 11.210627zm12.4123 4.7897c-.662.2995-1.4123-.1845-1.4123-.9111v-6.85502c0-.72656.7503-1.2106 1.4123-.91107l7.5744 3.42749c.7836.3547.7836 1.4676 0 1.8222z" fill="#0567d5" fill-rule="evenodd"></path></svg> 