<?xml version="1.0" encoding="UTF-8"?> <svg xmlns="http://www.w3.org/2000/svg" fill="none" height="19" viewBox="0 0 24 19" width="24"><path d="m7.44757 19c8.62393 0 13.34003-7.3092 13.34003-13.64702 0-.20766-.0042-.41426-.0136-.62006.9155-.67697 1.7113-1.52198 2.339-2.48346-.84.38183-1.744.63895-2.6924.75488.9679-.59374 1.7112-1.53341 2.0618-2.65336-.906.549604-1.9093.94898-2.977 1.16435-.8559-.932224-2.0743-1.51533-3.4225-1.51533-2.5895 0-4.6893 2.14816-4.6893 4.79593 0 .37651.0413.74238.1213 1.09363-3.89631-.20022-7.35158-2.10908-9.66376-5.011046-.40312.708606-.63522 1.532346-.63522 2.410596 0 1.66397.82782 3.13303 2.08657 3.99267-.76908-.0242-1.49163-.24064-2.12348-.60013-.00104.01995-.00104.04015-.00104.06116 0 2.32312 1.6164 4.26259 3.76145 4.70209-.39377.1098-.80807.1688-1.23588.1688-.30202 0-.59572-.0308-.88136-.0864.59675 1.9054 2.32777 3.2923 4.38003 3.3314-1.60495 1.2867-3.62655 2.0532-5.82307 2.0532-.37817 0-.751402-.022-1.118398-.0664 2.074878 1.3603 4.538588 2.1545 7.186828 2.1545z" fill="#0567d5"></path></svg> 