<?xml version="1.0" encoding="UTF-8"?><svg id="Layer_2" xmlns="http://www.w3.org/2000/svg" viewBox="0 0 1566.75 314.92"><defs><style>.cls-1{fill:#fff;}</style></defs><g id="Layer_1-2"><g><g><g><path class="cls-1" d="m307.22,133.8c-6.05-7.91-13.75-14.38-22.89-19.19-9.18-4.81-19.67-7.27-31.18-7.27s-20.9,2.12-29.58,6.25c-8.68,4.14-16.2,9.84-22.34,16.92-6.14,7.08-10.89,15.36-14.21,24.68-3.28,9.29-4.97,19.22-4.97,29.55,0,11.22,1.57,21.67,4.67,31.05,3.1,9.41,7.79,17.66,13.96,24.43,6.14,6.81,13.78,12.17,22.65,15.94,8.87,3.77,19.18,5.67,30.66,5.67,7.89,0,15.56-1.1,22.83-3.25,7.27-2.18,13.93-5.43,19.79-9.69,5.86-4.26,10.96-9.56,15.13-15.82,4.17-6.25,7.15-13.46,8.84-21.37l.4-1.87h-33.05l-.37,1.04c-2.67,7.6-6.72,13.4-12.09,17.17-5.37,3.77-12.58,5.7-21.48,5.7-6.41,0-12-1.1-16.57-3.31-4.6-2.21-8.44-5.21-11.42-8.89-3.01-3.71-5.31-8.12-6.81-13.09-1.38-4.54-2.15-9.26-2.27-14.13h100.9c2.64,0,4.85-2.02,5.06-4.6.83-9.75,0-19.38-2.46-28.6-2.73-10.24-7.18-19.44-13.2-27.35Zm-90.25,36.6c.31-4.57,1.32-8.89,3.01-12.84,1.87-4.44,4.39-8.34,7.49-11.62,3.1-3.25,6.84-5.85,11.17-7.69,4.33-1.84,9.21-2.79,14.55-2.79s9.79,1.01,13.93,3.03c4.14,2.02,7.73,4.72,10.65,7.97,2.92,3.28,5.25,7.17,6.94,11.62,1.5,3.96,2.49,8.09,2.95,12.36h-70.65l-.03-.03Z"/><path class="cls-1" d="m462.02,111.21v.06h-28.91l-.34,1.07-32.01,99.94c-.34,1.01-1.2,1.38-1.9,1.38-.34,0-1.47-.09-1.9-1.38l-33.27-99.97-.34-1.07h-30.54c-1.66,0-3.22.8-4.17,2.18-.95,1.38-1.2,3.1-.61,4.66l49.72,136.54c.74,1.99,2.67,3.34,4.79,3.34h30.6c2.15,0,4.08-1.35,4.79-3.37l48.92-136.54c.55-1.56.31-3.31-.65-4.66-.95-1.35-2.52-2.18-4.17-2.18Z"/><path class="cls-1" d="m594.07,133.8c-6.05-7.91-13.75-14.38-22.89-19.19-9.18-4.81-19.67-7.27-31.18-7.27s-20.9,2.12-29.58,6.25c-8.68,4.14-16.2,9.84-22.34,16.92-6.14,7.08-10.9,15.36-14.21,24.68-3.28,9.29-4.97,19.22-4.97,29.55,0,11.22,1.57,21.67,4.67,31.05,3.1,9.41,7.8,17.66,13.96,24.43,6.14,6.81,13.78,12.17,22.65,15.94,8.87,3.77,19.18,5.67,30.66,5.67,7.89,0,15.56-1.1,22.83-3.25,7.27-2.18,13.93-5.43,19.8-9.69,5.86-4.26,10.96-9.56,15.13-15.82,4.17-6.25,7.15-13.46,8.84-21.37l.4-1.87h-33.05l-.37,1.04c-2.67,7.6-6.72,13.4-12.09,17.17-5.37,3.77-12.58,5.7-21.48,5.7-6.41,0-12-1.1-16.57-3.31-4.6-2.21-8.44-5.21-11.42-8.89-3.01-3.71-5.31-8.12-6.81-13.09-1.38-4.54-2.15-9.26-2.27-14.13h100.9c2.64,0,4.85-2.02,5.06-4.6.83-9.75,0-19.38-2.45-28.6-2.73-10.24-7.18-19.44-13.2-27.35Zm-90.26,36.6c.31-4.57,1.32-8.89,3.01-12.84,1.87-4.44,4.39-8.34,7.49-11.62,3.1-3.25,6.84-5.85,11.17-7.69,4.33-1.84,9.21-2.79,14.55-2.79s9.79,1.01,13.93,3.03c4.14,2.02,7.73,4.72,10.65,7.97,2.91,3.28,5.25,7.17,6.93,11.62,1.5,3.96,2.49,8.09,2.95,12.36h-70.64l-.03-.03Z"/><path class="cls-1" d="m855.97,130.3c-5.68-7.08-12.92-12.75-21.54-16.83-8.62-4.08-18.81-6.13-30.29-6.13-4.17,0-8.47.52-12.74,1.56-4.26,1.04-8.41,2.58-12.31,4.57-3.9,1.99-7.52,4.45-10.74,7.3-2.24,1.96-4.27,4.14-6.05,6.47V59.21c0-2.82-2.3-5.09-5.1-5.09l.03-.06h-29.71v203.9h28.02c2.82,0,5.09-2.3,5.09-5.09v-11.31c2.03,3.13,4.42,5.82,7.06,8,3.71,3.07,7.92,5.55,12.49,7.45,4.54,1.9,9.39,3.19,14.42,3.86,4.97.64,9.97.98,14.79.98,10.77,0,20.28-2.18,28.26-6.44,7.95-4.26,14.64-10.02,19.86-17.11,5.19-7.08,9.11-15.33,11.66-24.53,2.52-9.17,3.81-18.76,3.81-28.48,0-10.67-1.41-20.82-4.23-30.17-2.82-9.41-7.12-17.75-12.8-24.83Zm-17.68,54.41c0,6.32-.67,12.26-2.06,18.12-1.35,5.79-3.59,11.04-6.72,15.6-3.1,4.51-7.12,8.25-11.88,11.07-4.73,2.82-10.65,4.23-17.55,4.23l-.06-.06c-6.23,0-11.72-1.26-16.39-3.71-4.7-2.48-8.81-5.89-12.15-10.15-3.38-4.26-5.95-9.47-7.64-15.42-1.72-6.04-2.58-12.66-2.58-19.71,0-14.96,3.31-27.1,9.85-36.02,6.42-8.8,16.17-13.24,28.94-13.24,6.17,0,11.72,1.38,16.48,4.11,4.79,2.76,8.84,6.44,12.03,10.94,3.22,4.57,5.68,9.87,7.27,15.76,1.63,5.95,2.45,12.17,2.45,18.49Z"/><rect class="cls-1" x="990.51" y="111.24" width="34.8" height="146.72"/><path class="cls-1" d="m1157.15,59.21v68.03c-2.06-2.67-4.42-5.09-7.09-7.2-3.71-2.94-7.8-5.4-12.15-7.3-4.36-1.9-8.96-3.28-13.69-4.14-4.7-.86-9.39-1.29-13.9-1.29-7.95,0-15.84,1.47-23.51,4.41-7.7,2.94-14.64,7.6-20.59,13.86-5.95,6.25-10.8,14.29-14.36,23.85-3.56,9.56-5.37,21.06-5.37,34.15,0,10.85,1.41,21.12,4.23,30.59,2.82,9.5,7.12,17.87,12.8,24.83,5.68,7.02,12.95,12.63,21.54,16.68,8.59,4.05,18.78,6.13,30.29,6.13,9.27,0,18.17-1.87,26.48-5.55,7.06-3.13,12.77-8,17-14.53v11.1c0,2.82,2.3,5.09,5.09,5.09h28.02V54.12h-29.71c-2.82,0-5.1,2.3-5.1,5.09Zm1.17,125.23c0,6.13-.77,12.2-2.3,18.09-1.53,5.82-3.9,11.13-7.03,15.79-3.1,4.6-7.15,8.37-12,11.19-4.85,2.82-10.71,4.23-17.43,4.23h-.06c-6.57,0-12.31-1.35-17.06-3.99-4.79-2.67-8.78-6.22-11.85-10.64-3.13-4.47-5.49-9.63-7-15.36-1.53-5.76-2.3-11.71-2.3-17.66,0-6.35.68-12.63,2.06-18.7,1.35-5.98,3.62-11.43,6.72-16.16,3.1-4.69,7.15-8.55,12.03-11.47,4.82-2.88,10.9-4.35,17.98-4.35,11.85,0,20.96,4.17,27.86,12.75,6.87,8.58,10.37,20.76,10.37,36.27Z"/><path class="cls-1" d="m1321.33,127.61c-4.01-6.32-9.33-11.16-15.83-14.41-7.8-3.89-16.45-5.86-25.72-5.86h-.03c-10.37,0-19.83,2.02-28.08,5.98-8.22,3.95-15.25,9.38-20.96,16.09-5.68,6.71-10.07,14.59-13.07,23.42-3.01,8.83-4.54,18.24-4.54,27.99,0,10.45,1.23,20.42,3.68,29.58,2.45,9.23,6.41,17.5,11.81,24.56,5.4,7.11,12.34,12.78,20.56,16.83,8.23,4.08,18.35,6.13,30.01,6.13,9.11,0,17.77-2.3,25.66-6.87,6.63-3.83,12.15-8.98,16.44-15.39v17.38c0,11.37-2.85,20.2-8.46,26.18-5.62,5.95-14.67,8.95-26.98,8.95-3.99,0-7.86-.22-11.48-.67-3.5-.43-6.75-1.41-9.64-2.88-2.85-1.47-5.34-3.53-7.43-6.13-2.06-2.57-3.56-6.01-4.42-10.18l-.25-1.23h-34.65l.15,1.69c.77,8.58,3.28,15.94,7.52,21.89,4.17,5.89,9.45,10.7,15.65,14.32,6.14,3.59,13.04,6.16,20.5,7.69,7.4,1.5,14.85,2.24,22.13,2.24,23.08,0,41.07-5.52,53.47-16.37,12.42-10.91,18.75-27.62,18.75-49.63V107.34h-34.8v20.26Zm-37.15,102.24c-6.35,0-11.83-1.32-16.31-3.95-4.51-2.64-8.29-6.13-11.2-10.36-2.95-4.29-5.16-9.2-6.6-14.65-1.44-5.49-2.18-11.19-2.18-16.98s.64-11.71,1.9-17.6c1.26-5.82,3.35-11.07,6.2-15.6,2.82-4.51,6.6-8.22,11.17-11.04,4.54-2.79,10.25-4.2,17-4.2s12.28,1.26,16.94,3.71c4.66,2.48,8.5,5.85,11.42,10.06,2.94,4.26,5.16,9.26,6.6,14.81,1.44,5.61,2.18,11.43,2.18,17.38s-.68,11.99-2.06,17.84c-1.35,5.82-3.53,11.07-6.48,15.63-2.91,4.48-6.75,8.15-11.44,10.88-4.63,2.73-10.42,4.07-17.14,4.08Z"/><path class="cls-1" d="m1516.33,161.14c-2.73-10.24-7.18-19.44-13.2-27.35-6.05-7.91-13.75-14.38-22.89-19.19-9.17-4.81-19.67-7.27-31.18-7.27-10.91,0-20.9,2.12-29.58,6.25-8.68,4.14-16.2,9.84-22.34,16.92-6.14,7.08-10.89,15.36-14.21,24.68-3.28,9.29-4.97,19.22-4.97,29.55,0,11.22,1.57,21.67,4.67,31.05,3.1,9.41,7.79,17.66,13.96,24.43,6.14,6.81,13.79,12.17,22.66,15.94,8.87,3.77,19.18,5.67,30.66,5.67,7.88,0,15.56-1.1,22.83-3.25,7.27-2.18,13.93-5.43,19.8-9.69,5.86-4.26,10.95-9.56,15.13-15.82,4.17-6.25,7.15-13.46,8.84-21.37l.39-1.87h-33.05l-.37,1.04c-2.68,7.6-6.73,13.4-12.1,17.17-5.37,3.77-12.58,5.7-21.48,5.7-6.42,0-12-1.1-16.58-3.31-4.6-2.21-8.44-5.21-11.41-8.89-3-3.71-5.31-8.12-6.81-13.09-1.38-4.54-2.15-9.26-2.27-14.13h100.9c2.64,0,4.85-2.02,5.06-4.6.83-9.75,0-19.38-2.45-28.6Zm-81.78-22.9c4.33-1.84,9.21-2.79,14.55-2.79s9.79,1.01,13.93,3.03c4.15,2.02,7.73,4.72,10.64,7.97,2.93,3.28,5.26,7.17,6.94,11.62,1.51,3.96,2.49,8.09,2.95,12.36h-70.64l-.04-.03c.31-4.57,1.33-8.89,3.02-12.84,1.86-4.44,4.38-8.34,7.48-11.62,3.11-3.25,6.85-5.85,11.18-7.69Z"/><path class="cls-1" d="m1009.2,55.78h-1.75c-10.04,0-18.17,8.15-18.17,18.15s8.16,18.15,18.17,18.15h1.75c10.04,0,18.17-8.15,18.17-18.15s-8.16-18.15-18.17-18.15Z"/><path class="cls-1" d="m708.42,109.93h-.12c-46.43,1.16-81.42,28.63-81.42,63.89v79.05c0,2.82,2.3,5.09,5.09,5.09h27.77v-78.93c0-21.06,22.96-37.55,52.23-37.55h1.53v-26.49c0-2.79-2.3-5.06-5.09-5.06Z"/><path class="cls-1" d="m970.04,109.93h-.12c-46.43,1.16-81.42,28.63-81.42,63.89v79.05c0,2.82,2.3,5.09,5.09,5.09h27.77v-78.93c0-21.06,22.95-37.55,52.23-37.55h1.53v-26.49c0-2.79-2.3-5.06-5.09-5.06Z"/></g><path class="cls-1" d="m253.03,0c-64.04,0-123.61,34.67-155.47,90.49l-.03.05c-.06.1-.75,1.36-1.86,3.6-23.67-25.6-56.75-40.18-91.67-40.18H0v54.63h4c38.69,0,70.17,31.45,70.17,70.1v4h54.68s.08,0,.08,0l-.08-4.08c0-.21-.31-20.81,8.71-45.41,17.24-46.99,63.65-78.56,115.47-78.56h4V0h-4ZM8,100.68v-38.66c32.28,1.1,62.59,15.51,83.99,39.98-.29.66-.59,1.34-.9,2.05-4.32,10.05-10.65,26.91-14.22,46.39-10.89-27.97-37.46-48.17-68.87-49.76Zm74.23,74c.82-26.59,9.59-51.7,15.43-65.63,14.36,19.21,22.32,41.79,23.12,65.63h-38.55ZM249.03,46.69c-53.54,1.58-101.03,34.83-118.98,83.74-2.2,6.01-3.87,11.75-5.15,17.07-4.11-15.9-11.37-30.88-21.6-44.28-.67-.87-1.31-1.7-1.93-2.48,1.8-3.81,3.02-6.07,3.15-6.31C134.3,42.28,189.4,9.46,249.03,8.05v38.64Z"/></g><g><path class="cls-1" d="m1519.09,111.41v-4.07h19.18v4.07h-7.15v19.28h-4.88v-19.28h-7.15Z"/><path class="cls-1" d="m1541.44,107.34h6.09l6.43,15.69h.27l6.43-15.69h6.09v23.35h-4.79v-15.2h-.19l-6.04,15.08h-3.26l-6.04-15.14h-.19v15.25h-4.79v-23.35Z"/></g></g></g></svg>